<svg width="330" height="22" viewBox="0 0 330 22" fill="none" xmlns="http://www.w3.org/2000/svg">
<path d="M18.5237 15.0361C18.5237 17.0602 17.7767 18.6145 16.2827 19.6988C14.7888 20.759 12.5839 21.2892 9.66829 21.2892C7.01768 21.2892 4.94539 20.8193 3.45142 19.8795C1.95744 18.9398 0.993588 17.5181 0.559853 15.6145L4.71648 14.9277C5.00564 16.012 5.55985 16.8072 6.37913 17.3133C7.19841 17.8193 8.34299 18.0723 9.81287 18.0723C12.8249 18.0723 14.3309 17.1446 14.3309 15.2892C14.3309 14.7108 14.1502 14.2289 13.7888 13.8434C13.4514 13.4578 12.9695 13.1446 12.343 12.9036C11.7165 12.6386 10.5117 12.3253 8.72853 11.9639C7.18636 11.6024 6.10202 11.3133 5.47552 11.0964C4.87311 10.8795 4.33094 10.6265 3.84901 10.3373C3.36708 10.0241 2.94539 9.66265 2.58395 9.25301C2.2466 8.84337 1.98154 8.36145 1.78877 7.80723C1.62009 7.22892 1.53576 6.56626 1.53576 5.81928C1.53576 3.96386 2.23455 2.54217 3.63214 1.55422C5.02973 0.542168 7.06588 0.036144 9.74058 0.036144C12.2948 0.036144 14.2105 0.445783 15.4876 1.26506C16.7888 2.06024 17.6201 3.38554 17.9815 5.24096L13.7888 5.78313C13.5719 4.89157 13.1382 4.22892 12.4876 3.79518C11.837 3.33735 10.8972 3.10843 9.66829 3.10843C7.04178 3.10843 5.72853 3.92771 5.72853 5.56627C5.72853 6.09639 5.86106 6.54217 6.12612 6.90361C6.41527 7.24096 6.82491 7.53012 7.35503 7.77108C7.90925 8.01205 9.02973 8.31325 10.7165 8.6747C12.6924 9.08434 14.102 9.46988 14.9454 9.83133C15.8129 10.1928 16.4876 10.6145 16.9695 11.0964C17.4755 11.5542 17.8611 12.1084 18.1261 12.759C18.3912 13.4096 18.5237 14.1687 18.5237 15.0361ZM38.8295 21V8.49398C38.8295 8.20482 38.8295 7.92771 38.8295 7.66265C38.8295 7.37349 38.8777 6.14458 38.9741 3.9759C38.2753 6.60241 37.7572 8.43373 37.4198 9.46988L33.6969 21H30.6247L26.9018 9.46988L25.3476 3.9759C25.468 6.24096 25.5283 7.74699 25.5283 8.49398V21H21.6969V0.361446H27.4801L31.1668 11.8916L31.4921 13.012L32.1789 15.7952L33.1186 12.4699L36.9138 0.361446H42.6608V21H38.8295ZM60.9643 21L53.5547 11.5301L50.9884 13.4819V21H46.6872V0.361446H50.9884V9.72289L60.2775 0.361446H65.3378L56.5185 9.10843L66.0607 21H60.9643ZM94.5662 15.1084C94.5662 16.988 93.8553 18.4458 92.4337 19.4819C91.0361 20.494 89.0843 21 86.5782 21H76.277V0.361446H85.7108C88.2409 0.361446 90.1445 0.807229 91.4216 1.6988C92.7228 2.56626 93.3734 3.84337 93.3734 5.53012C93.3734 6.71084 93.0481 7.71084 92.3975 8.53012C91.7469 9.3253 90.759 9.86747 89.4337 10.1566C91.0963 10.3494 92.3614 10.8795 93.2288 11.747C94.1204 12.5904 94.5662 13.7108 94.5662 15.1084ZM89.0361 6.14458C89.0361 5.20482 88.7349 4.54217 88.1324 4.15663C87.53 3.77108 86.6505 3.57831 85.4939 3.57831H80.5782V8.6747H85.53C86.759 8.6747 87.6505 8.46988 88.2047 8.06024C88.759 7.62651 89.0361 6.98795 89.0361 6.14458ZM90.2288 14.7831C90.2288 12.8554 88.8433 11.8916 86.0722 11.8916H80.5782V17.7831H86.2168C87.6144 17.7831 88.6264 17.5422 89.2529 17.0602C89.9035 16.5542 90.2288 15.7952 90.2288 14.7831ZM112.494 21L110.686 15.7229H102.807L100.964 21H96.6624L104.18 0.361446H109.277L116.795 21H112.494ZM106.711 3.54217L106.638 3.86747C106.542 4.22892 106.421 4.63855 106.277 5.09639C106.156 5.53012 105.325 7.98795 103.783 12.4699H109.711L107.65 6.54217L107.036 4.55422L106.711 3.54217ZM132.12 21L123.12 5.09639C123.289 6.63855 123.385 7.87952 123.409 8.81928V21H119.578V0.361446H124.493L133.638 16.3735C133.469 14.9036 133.373 13.5663 133.349 12.3614V0.361446H137.18V21H132.12ZM159.626 10.5181C159.626 12.6386 159.204 14.494 158.361 16.0843C157.517 17.6747 156.325 18.8916 154.782 19.7349C153.264 20.5783 151.529 21 149.578 21H141.228V0.361446H148.674C152.144 0.361446 154.831 1.24096 156.734 3C158.662 4.73494 159.626 7.24096 159.626 10.5181ZM155.252 10.5181C155.252 8.3012 154.674 6.61446 153.517 5.45783C152.385 4.27711 150.746 3.68675 148.602 3.68675H145.529V17.6747H149.18C151.035 17.6747 152.505 17.0361 153.59 15.759C154.698 14.4578 155.252 12.7108 155.252 10.5181ZM171.445 21.2892C168.601 21.2892 166.421 20.6024 164.903 19.2289C163.409 17.8313 162.662 15.8434 162.662 13.2651V0.361446H166.963V12.9398C166.963 14.5783 167.348 15.8193 168.12 16.6627C168.915 17.4819 170.059 17.8916 171.553 17.8916C173.095 17.8916 174.276 17.4578 175.095 16.5904C175.939 15.6988 176.361 14.4337 176.361 12.7952V0.361446H180.698V13.0482C180.698 15.6747 179.891 17.7108 178.276 19.1566C176.662 20.5783 174.385 21.2892 171.445 21.2892ZM197.071 21L188.071 5.09639C188.24 6.63855 188.336 7.87952 188.36 8.81928V21H184.529V0.361446H189.445L198.589 16.3735C198.421 14.9036 198.324 13.5663 198.3 12.3614V0.361446H202.131V21H197.071ZM215.975 17.8916C217.107 17.8916 218.191 17.7349 219.228 17.4217C220.288 17.0843 221.107 16.6627 221.685 16.1566V13.3012H216.625V10.1205H225.625V17.7108C224.541 18.8434 223.119 19.7229 221.36 20.3494C219.601 20.9759 217.758 21.2892 215.83 21.2892C212.481 21.2892 209.902 20.3614 208.095 18.506C206.288 16.6506 205.384 14.012 205.384 10.5904C205.384 7.19277 206.288 4.59036 208.095 2.78313C209.926 0.951807 212.541 0.036144 215.938 0.036144C220.782 0.036144 223.866 1.83133 225.191 5.42169L221.216 6.61446C220.782 5.57831 220.107 4.79518 219.191 4.26506C218.276 3.71084 217.191 3.43373 215.938 3.43373C213.914 3.43373 212.372 4.06024 211.312 5.31325C210.252 6.54217 209.722 8.3012 209.722 10.5904C209.722 12.9277 210.264 14.7349 211.348 16.012C212.456 17.2651 213.999 17.8916 215.975 17.8916ZM246.728 3.68675V21H242.427V3.68675H235.74V0.361446H253.415V3.68675H246.728ZM255.72 21V0.361446H260.022V21H255.72ZM281.173 21V8.49398C281.173 8.20482 281.173 7.92771 281.173 7.66265C281.173 7.37349 281.221 6.14458 281.318 3.9759C280.619 6.60241 280.101 8.43373 279.764 9.46988L276.041 21H272.968L269.246 9.46988L267.691 3.9759C267.812 6.24096 267.872 7.74699 267.872 8.49398V21H264.041V0.361446H269.824L273.511 11.8916L273.836 13.012L274.523 15.7952L275.462 12.4699L279.258 0.361446H285.005V21H281.173ZM297.597 21.2892C294.754 21.2892 292.573 20.6024 291.055 19.2289C289.561 17.8313 288.814 15.8434 288.814 13.2651V0.361446H293.115V12.9398C293.115 14.5783 293.501 15.8193 294.272 16.6627C295.067 17.4819 296.212 17.8916 297.706 17.8916C299.248 17.8916 300.429 17.4578 301.248 16.5904C302.091 15.6988 302.513 14.4337 302.513 12.7952V0.361446H306.85V13.0482C306.85 15.6747 306.043 17.7108 304.429 19.1566C302.814 20.5783 300.537 21.2892 297.597 21.2892ZM324.85 21L320.043 13.1566H314.983V21H310.681V0.361446H320.983C323.44 0.361446 325.332 0.891566 326.657 1.95181C328.007 3.01205 328.681 4.53012 328.681 6.50602C328.681 7.95181 328.272 9.20482 327.452 10.2651C326.633 11.3012 325.525 11.988 324.127 12.3253L329.693 21H324.85ZM324.344 6.68675C324.344 4.71084 323.067 3.72289 320.513 3.72289H314.983V9.79518H320.657C321.862 9.79518 322.778 9.53012 323.404 9C324.031 8.44578 324.344 7.6747 324.344 6.68675Z" fill="white"/>
</svg>
